<svg width="512" height="512" viewBox="0 0 512 512" fill="none" xmlns="http://www.w3.org/2000/svg">
  <!-- Gradient Background (Blue to Purple) -->
  <defs>
    <linearGradient id="bgGradient" x1="0%" y1="0%" x2="100%" y2="100%">
      <stop offset="0%" style="stop-color:#4A90E2;stop-opacity:1" />
      <stop offset="100%" style="stop-color:#7B68EE;stop-opacity:1" />
    </linearGradient>
  </defs>
  
  <!-- Background Rectangle (Full size, no rounded corners) -->
  <rect width="512" height="512" fill="url(#bgGradient)"/>
  
  <!-- Cloud Icon (Centered, larger size) -->
  <path d="M384 288c0-53.02-42.98-96-96-96-7.42 0-14.65.85-21.62 2.44C254.69 168.74 228.48 152 198 152c-39.7 0-72 32.3-72 72 0 4.86.48 9.61 1.4 14.18C105.02 244.84 88 267.58 88 294c0 33.14 26.86 60 60 60h224c35.35 0 64-28.65 64-64s-28.65-64-64-64c-5.04 0-9.96.58-14.7 1.68A95.33 95.33 0 00384 288z" 
        fill="white" 
        transform="translate(0, 20)"/>
</svg>
